<?xml version="1.0" encoding="UTF-8"?>
<svg width="197px" height="119px" viewBox="0 0 197 119" version="1.1" xmlns="http://www.w3.org/2000/svg" xmlns:xlink="http://www.w3.org/1999/xlink">
    <!-- Generator: Sketch 52.6 (67491) - http://www.bohemiancoding.com/sketch -->
    <title>CDG White</title>
    <desc>Created with Sketch.</desc>
    <g id="Website-Elements" stroke="none" stroke-width="1" fill="none" fill-rule="evenodd">
        <g id="Group-3" transform="translate(-35.000000, -74.000000)" fill-rule="nonzero" stroke="#FF0000">
            <g id="CDG-White" transform="translate(132.960666, 130.379648) scale(-1, 1) translate(-132.960666, -130.379648) translate(36.000000, 69.000000)">
                <g id="CDG">
                    <path d="M29.6936401,95.8579325 C26.4092546,95.8579325 24.5072196,95.2053679 19.993958,95.2053679 C18.4954372,95.2053679 15.4130999,95.5452778 14.4885012,94.584151 C11.7527912,91.7403614 12.1744223,83.325665 12.1744223,79.7521886 C12.1744223,75.5572146 13.873886,72.4114264 16.6106772,69.1570883 C19.1928154,66.0866493 20.9054642,63.1583501 28.8472852,63.1583501 C36.7891061,63.1583501 44.073579,72.9429163 44.073579,81.0958109 C44.073579,89.2487056 37.635461,95.8579325 29.6936401,95.8579325 Z M18.5998492,81.4312288 C17.7074703,81.4312288 17.7074703,82.3137659 18.5998492,84.0788402 C19.5155931,85.9301782 20.6280948,87.5678521 21.9373544,88.9918618 C23.9012438,91.1278763 24.3839154,90.0560818 28.4813978,90.0560818 C31.2130527,90.0560818 33.490115,89.7013418 35.3125847,88.9918618 C33.8537072,83.9514398 32.5913825,80.8314741 31.5256108,79.6319648 C29.9269532,77.8327008 27.4601015,77.8327008 25.520192,77.8327008 C23.5802825,77.8327008 19.9384175,81.4312288 18.5998492,81.4312288 Z" id="Combined-Shape" stroke-width="1.764" fill="#FF0000"></path>
                    <path d="M56.2187973,96.7599516 C52.9344118,96.7599516 50.0636897,95.8899379 45.5504281,95.8899379 C44.0519073,95.8899379 32.7171176,96.8510648 31.7925189,95.8899379 C29.0568089,93.0461483 39.2414219,83.4335503 39.2414219,79.8600739 C39.2414219,75.6650999 40.9408856,72.5193117 43.6776769,69.2649736 C46.259815,66.1945346 50.8444403,59.857237 58.7862612,59.857237 C62.2509595,59.857237 65.743289,62.3097097 68.8613406,65.0647309 C70.0532072,66.1178301 70.704265,67.2129411 71.9942691,68.2354149 C73.4586991,69.3961409 75.4189693,72.8534953 75.3148998,74.7205749 C75.1818078,77.1083392 75.3148998,79.9186013 75.3148998,81.7349084 C75.3148998,85.6481532 72.2994625,90.8221477 70.4195516,94.6920363 C70.1177774,95.3132532 70.1177774,96.4213212 68.8613406,96.7599516 C65.6326741,97.6301302 59.1917567,96.7599516 56.2187973,96.7599516 Z M46.9838926,88.2558709 C47.5910389,88.2558709 50.7318692,88.2558709 52.3548896,88.2558709 C54.0623789,88.2558709 55.8054336,87.379361 56.8654412,87.379361 C58.8053507,87.379361 59.8372221,84.7317495 61.4358797,82.9324855 C62.5016514,81.7329762 63.2552342,80.0953023 63.6966281,78.019464 C61.8741584,76.7318456 59.5970961,76.0880364 56.8654412,76.0880364 C52.7679588,76.0880364 53.8533237,76.0880364 52.3548896,76.955244 C51.3559336,77.5333824 49.9575181,79.3720039 48.1596432,82.4711085 C46.4834306,86.3276168 46.0915137,88.2558709 46.9838926,88.2558709 Z" id="Combined-Shape" stroke-width="1.764" fill="#FF0000"></path>
                    <path d="M6.49954742,120.569343 C8.8008321,120.830653 13.1514512,121.062479 19.5514048,121.264821 C25.9513584,121.467163 35.6022421,121.467163 48.504056,121.264821 L86.7960415,121.264821 L116.892138,121.264821 C164.489985,116.380533 189.612604,110.473753 192.259994,103.54448 C193.517556,100.252939 192.426151,99.6263488 192.259994,97.6485244 C192.137571,96.191295 190.948407,93.9751656 188.692502,91.0001364 L185.159993,87.4832354 L182.349346,84.7248989 L175.823591,82.7128637 C164.325021,82.7128637 158.575735,82.7128637 158.575735,82.7128637 C158.575735,82.7128637 155.370027,82.7128637 154.119997,82.7128637 C153.286643,82.7128637 150.282305,81.0050718 145.106981,77.589488 L127.626185,72.7472891 L98.0892693,60.6584349 L82.0551213,47.8267831 L67.5402666,20.966945 L57.767847,7.93645475 L46.0508412,19.7213577 L33.2263003,22.8300703 L8.11136098,20.966945 L9.36821719,47.8267831 L6.49954742,64.6006379 L1.23491551,94.3558643 L1.23491551,103.54448 L0.137886567,104.686815 C0.137886567,111.523312 0.137886567,115.995438 0.137886567,118.103191 C0.137886567,119.57558 1.13161366,120.569343 3.61020213,120.569343 C5.26259444,120.569343 6.22570954,120.569343 6.49954742,120.569343 Z" id="Path" stroke-width="3.528"></path>
                    <path d="M1.48382975,94.9131209 C3.29408389,94.9131209 29.9220757,95.7330079 81.3678053,97.3727821 C102.812154,97.3727821 113.970287,97.3727821 114.842204,97.3727821 C115.714122,97.3727821 123.688356,96.552895 138.764908,94.9131209 L160.895265,89.3600821 L180.052377,84.2131432" id="Path-2" stroke-width="3.528"></path>
                    <path d="M137.976666,118.863836 C137.976666,117.159806 136.972561,112.095164 134.964351,103.669909 L172.177772,94.7329666 L186.192264,89.2317346" id="Path-3" stroke-width="3.528"></path>
                    <path d="M135.187052,103.683231 C132.454188,103.683231 121.464534,105.688097 107.601703,106.37075 C91.0911222,107.183787 70.5937812,106.676904 56.3456188,106.37075 C46.0254935,106.148998 27.2895828,105.253159 0.137886567,103.683231" id="Path-4" stroke-width="3.528"></path>
                    <path d="M28.1996205,88.1892979 C30.3655716,88.1892979 32.6533312,86.0002474 32.6533312,83.5649672 C32.6533312,82.517268 31.6434218,80.2966356 31.1006112,79.5401052 C30.3817085,78.5381505 29.4337424,78.7865461 28.1996205,78.7865461 C26.0336693,78.7865461 23.7884536,81.3445528 23.7884536,83.779833 C23.7884536,85.2344959 24.7295618,87.3861558 25.8363436,88.1892979 C26.5824472,88.7307121 27.3274542,88.1892979 28.1996205,88.1892979 Z" id="Oval-2" class="heart" stroke-width="1.764" fill="#FF0000"></path>
                    <path d="M53.3403096,87.1238819 C55.5062608,87.1238819 57.7940204,84.9348314 57.7940204,82.4995512 C57.7940204,81.4518519 56.784111,79.2312195 56.2413004,78.4746892 C55.5223977,77.4727344 54.5744316,77.72113 53.3403096,77.72113 C51.1743585,77.72113 48.9291428,80.2791368 48.9291428,82.714417 C48.9291428,84.1690799 50.0204768,85.5825744 51.1272585,86.3857165 C51.8733622,86.9271307 52.4681434,87.1238819 53.3403096,87.1238819 Z" id="Oval-2" class="heart" stroke-width="1.764" fill="#FF0000" transform="translate(53.361582, 82.408860) scale(1, -1) translate(-53.361582, -82.408860) "></path>
                    <path d="M64.0560915,31.6331177 L71.5261896,30.0993908" id="Line" stroke-width="5.292" stroke-linecap="square"></path>
                    <path d="M71.5261896,44.2863648 L78.9962878,42.7526379" id="Line" stroke-width="5.292" stroke-linecap="square"></path>
                    <path d="M79.3697927,54.6390215 L86.8398908,53.1052946" id="Line" stroke-width="5.292" stroke-linecap="square"></path>
                    <path d="M91.5087021,63.2662355 L96.0218343,59.8153499" id="Line" stroke-width="5.292" stroke-linecap="square"></path>
                    <path d="M117.280541,74.7691874 L121.793673,71.3183018" id="Line" stroke-width="5.292" stroke-linecap="square"></path>
                    <path d="M129.979708,79.3703681 L134.49284,75.9194826" id="Line" stroke-width="5.292" stroke-linecap="square"></path>
                    <path d="M141.931865,82.8212537 L146.444997,79.3703681" id="Line" stroke-width="5.292" stroke-linecap="square"></path>
                    <path d="M103.834364,69.4011432 L108.347496,65.9502576" id="Line" stroke-width="5.292" stroke-linecap="square"></path>
                    <path d="M47.3825644,18.7018619 C47.3825644,19.9768356 64.6292048,46.9443383 65.6552051,46.9443383 C66.3392053,46.9443383 70.0843723,51.8225284 76.8907062,61.5789087 L100.064093,76.8663147 L137.632717,87.1302287 L158.205884,89.5396494" id="Path-7" stroke-width="1.764"></path>
                </g>
            </g>
        </g>
    </g>
</svg>