<?xml version="1.0" encoding="UTF-8"?>
<svg width="1205px" height="434px" viewBox="0 0 1205 434" version="1.1" xmlns="http://www.w3.org/2000/svg" xmlns:xlink="http://www.w3.org/1999/xlink">
    <!-- Generator: Sketch 52.6 (67491) - http://www.bohemiancoding.com/sketch -->
    <title>sneakers_diagonal</title>
    <desc>Created with Sketch.</desc>
    <g id="Website-Elements" stroke="none" stroke-width="1" fill="none" fill-rule="evenodd">
        <g id="sneakers_diagonal" transform="translate(1.000000, -3.000000)" fill-rule="nonzero" stroke="#FF0000">
            <g id="sneakersshort">
                <g id="CP-Achilles-Copy" transform="translate(941.000000, 50.000000)">
                    <g id="CP-Achilles">
                        <path d="M26.1385445,20.7142636 L27.1117882,22.8719994" id="Line" stroke-width="3" stroke-linecap="square"></path>
                        <path d="M30.4274556,18.7670901 L32.1382095,20.3598523" id="Line" stroke-width="3" stroke-linecap="square"></path>
                        <path d="M35.8686726,16.1686486 L37.8621136,17.3586033" id="Line" stroke-width="3" stroke-linecap="square"></path>
                        <path d="M41.9862043,13.2916675 L43.9796453,14.4816222" id="Line" stroke-width="3" stroke-linecap="square"></path>
                        <path d="M48.103736,10.2708374 L50.097177,11.4607921" id="Line" stroke-width="3" stroke-linecap="square"></path>
                        <path d="M53.9431981,7.39385638 L55.936639,8.58381107" id="Line" stroke-width="3" stroke-linecap="square"></path>
                        <path d="M102.608139,39.7290678 L99.5426897,40.884231 L52.4359899,42.2370263 L30.8220706,42.2370263 L7.64828939,39.7290678 L1.24954299,37.369151 C-0.287058374,34.6480026 -0.287058374,31.691057 1.24954299,28.4983142 C2.03104855,26.8745058 4.38242212,26.0369546 7.64828939,25.1108564 C9.75195763,24.5143217 13.9578752,23.7993943 20.2660421,22.9660742 L68.5949744,0.0589833763 L72.141845,9.79400473 C80.0781326,13.6435764 88.6704127,13.3134603 97.9186853,8.80365646 C98.9218985,8.31445215 99.1319471,9.81973813 99.5426897,10.849258 C100.094258,12.2317546 100.690502,13.4689041 101.03559,14.6494825 C101.856332,17.4573243 102.602242,18.3618724 102.608139,22.9660742 C102.612671,26.5047409 102.612671,32.0924054 102.608139,39.7290678 Z" id="Path" stroke-width="2"></path>
                        <path d="M1.2785789,28.5561006 C1.51414646,28.7140131 2.897731,29.5335108 5.98055692,30.2609284 C9.3802038,31.0631025 15.1472902,31.1792763 19.6859399,31.5255128 C22.1044171,31.7100093 24.7816357,31.9486336 27.7175959,32.2413856 C32.6042728,32.2413856 35.5964834,32.2413856 36.6942276,32.2413856 C37.6090536,32.2413856 44.0478134,32.2413856 51.251788,32.2413856 C62.076248,32.2413856 75.1351905,31.5255128 76.2723423,31.5255128 C78.4832626,31.5255128 87.2153405,30.8606619 102.468576,29.5309601" id="Path-2" stroke-width="2"></path>
                        <path d="M93.4313932,10.5009809 C93.4313932,10.5009809 94.9339866,13.6185022 97.9391736,19.8535449 L101.74241,16.9255433" id="Path-3" stroke-width="2"></path>
                        <path d="M96.1415616,16.5105127 C85.0494344,20.8789565 73.0106084,18.8525654 60.0250835,10.4313393 C59.1068688,9.83586901 57.8260389,11.1818218 56.6713751,11.6597809 C54.1574017,12.7004097 51.2915728,14.3835927 47.3682702,16.5105127 C39.0859647,21.0005567 28.6291895,25.1547078 24.5051036,27.899251 C23.5188683,28.555582 23.6717979,28.495408 23.0589387,28.9783257 C21.8892897,29.89998 21.4732686,30.7436082 21.8108755,31.5092103" id="Path-4" stroke-width="2"></path>
                        <path d="M72.1818361,9.91643301 C71.1261096,9.91643301 65.8262242,6.6077027 65.8262242,6.6077027 C65.8262242,6.6077027 63.8054492,5.8040204 59.7638992,4.19665582" id="Path-5" stroke-width="2"></path>
                        <path d="M59.555623,10.1835942 L66.305472,7.01229241" id="Path-6" stroke-width="2"></path>
                    </g>
                </g>
                <g id="CDG-White" transform="translate(836.000000, 128.000000) scale(-1, 1) translate(-836.000000, -128.000000) translate(781.000000, 93.000000)">
                    <g id="CDG">
                        <path d="M16.8434302,54.6602622 C14.9803943,54.6602622 13.9014833,54.2881557 11.3413793,54.2881557 C10.4913579,54.2881557 8.74293187,54.4819797 8.21846218,53.9339244 C6.66665717,52.3123342 6.90582332,47.5140927 6.90582332,45.4764193 C6.90582332,43.0843546 7.86982765,41.2905583 9.42224601,39.4348645 C10.8869389,37.6840339 11.8584224,36.0142545 16.3633435,36.0142545 C20.8682647,36.0142545 25.0003114,41.5936253 25.0003114,46.2425818 C25.0003114,50.8915383 21.3483513,54.6602622 16.8434302,54.6602622 Z M10.5505846,46.4338443 C10.0443913,46.4338443 10.0443913,46.937086 10.5505846,47.9435695 C11.0700314,48.9992424 11.7010873,49.9330794 12.4437521,50.7450804 C13.5577494,51.963082 13.8315402,51.3519216 16.1557975,51.3519216 C17.7053023,51.3519216 18.9969439,51.1496412 20.0307222,50.7450804 C19.203188,47.870923 18.4871465,46.0918513 17.8825978,45.4078651 C16.9757748,44.381886 15.576477,44.381886 14.4760821,44.381886 C13.3756872,44.381886 11.3098745,46.4338443 10.5505846,46.4338443 Z" id="Combined-Shape" fill="#FF0000"></path>
                        <path d="M31.8895691,55.1746129 C30.0265332,55.1746129 28.3981438,54.6785124 25.8380398,54.6785124 C24.9880184,54.6785124 18.5584686,55.2265676 18.0339989,54.6785124 C16.4821939,53.0569221 22.2593171,47.5756113 22.2593171,45.5379379 C22.2593171,43.1458732 23.2233214,41.3520768 24.7757398,39.496383 C26.2404327,37.7455524 28.841017,34.1318886 33.3459382,34.1318886 C35.3112548,34.1318886 37.2922449,35.5303414 39.0609295,37.101314 C39.7370043,37.7018139 40.1063105,38.3262698 40.8380529,38.9093064 C41.6687366,39.5711774 42.780681,41.5426355 42.7216486,42.6072846 C42.6461534,43.9688393 42.7216486,45.5713115 42.7216486,46.607009 C42.7216486,48.8384256 41.0111709,51.788749 39.9448096,53.995443 C39.7736311,54.3496743 39.7736311,54.9815185 39.0609295,55.1746129 C37.2294997,55.6708076 33.5759515,55.1746129 31.8895691,55.1746129 Z M26.6511587,50.3254026 C26.9955566,50.3254026 28.7771622,50.3254026 29.6978048,50.3254026 C30.6663616,50.3254026 31.6550925,49.8255977 32.2563716,49.8255977 C33.3567665,49.8255977 33.9420855,48.3158725 34.8489086,47.2898933 C35.4534573,46.6059072 35.8809199,45.6720702 36.1312963,44.4883824 C35.097518,43.7541546 33.8058764,43.3870407 32.2563716,43.3870407 C29.9321143,43.3870407 30.5477771,43.3870407 29.6978048,43.8815412 C29.1311567,44.2112082 28.337919,45.2596298 27.3180918,47.0268062 C26.3672764,49.2258704 26.1449654,50.3254026 26.6511587,50.3254026 Z" id="Combined-Shape" fill="#FF0000"></path>
                        <path d="M3.68680542,68.7512421 C4.9921869,68.9002462 7.46003352,69.0324383 11.0903453,69.1478184 C14.7206571,69.2631984 20.1950275,69.2631984 27.5134567,69.1478184 L49.2342151,69.1478184 L66.3059347,69.1478184 C93.3053531,66.362692 107.555916,62.9945183 109.057622,59.0432973 C109.770962,57.1663897 109.151873,56.8090945 109.057622,55.6812963 C108.988179,54.8503526 108.313637,53.5866678 107.033997,51.890242 L105.030216,49.8848291 L103.435903,48.3119661 L99.7342317,47.1646602 C93.2117788,47.1646602 89.9505523,47.1646602 89.9505523,47.1646602 C89.9505523,47.1646602 88.1321451,47.1646602 87.4230777,47.1646602 C86.950366,47.1646602 85.246184,46.1908404 82.3105317,44.2432008 L72.394719,41.4820745 L55.6401894,34.5887489 L46.544974,27.2718641 L38.311563,11.9558046 L32.7682525,4.5255378 L26.1218943,11.2455438 L18.8472975,13.0181989 L4.60109107,11.9558046 L5.3140306,27.2718641 L3.68680542,36.8366781 L0.700493882,53.8037504 L0.700493882,59.0432973 L0.0782148217,59.6946813 C0.0782148217,63.5929999 0.0782148217,66.1431024 0.0782148217,67.3449888 C0.0782148217,68.184577 0.641896904,68.7512421 2.04785224,68.7512421 C2.9851558,68.7512421 3.53147353,68.7512421 3.68680542,68.7512421 Z" id="Path" stroke-width="2"></path>
                        <path d="M0.841688076,54.1215102 C1.86853723,54.1215102 16.9730081,54.5890275 46.1551007,55.5240621 C58.3192,55.5240621 64.6485431,55.5240621 65.1431298,55.5240621 C65.6377165,55.5240621 70.1610239,55.0565448 78.7130522,54.1215102 L91.2662831,50.9550476 L102.13297,48.020152" id="Path-2" stroke-width="2"></path>
                        <path d="M78.2659295,67.7787251 C78.2659295,66.8070503 77.6963607,63.9190818 76.557223,59.1148195 L97.6661758,54.0187823 L105.615761,50.8818611" id="Path-3" stroke-width="2"></path>
                        <path d="M76.6835476,59.1224163 C75.1333572,59.1224163 68.8995822,60.2656342 61.0360256,60.6548975 C51.6705581,61.1185087 40.0436397,60.8294735 31.9615073,60.6548975 C26.1075161,60.5284499 15.4797519,60.0176229 0.0782148217,59.1224163" id="Path-4" stroke-width="2"></path>
                        <path d="M15.995962,50.2874412 C17.2245768,50.2874412 18.5222864,49.0391974 18.5222864,47.650548 C18.5222864,47.0531273 17.949425,45.7868748 17.6415209,45.3554848 C17.2337303,44.7841486 16.6960057,44.9257891 15.995962,44.9257891 C14.7673471,44.9257891 13.4937702,46.3844198 13.4937702,47.7730692 C13.4937702,48.6025493 14.0276048,49.8294722 14.655416,50.2874412 C15.0786361,50.5961672 15.5012341,50.2874412 15.995962,50.2874412 Z" id="Oval-2" fill="#FF0000"></path>
                        <path d="M30.2567748,49.679918 C31.4853896,49.679918 32.7830992,48.4316741 32.7830992,47.0430248 C32.7830992,46.4456041 32.2102378,45.1793515 31.9023337,44.7479616 C31.4945431,44.1766254 30.9568185,44.3182659 30.2567748,44.3182659 C29.0281599,44.3182659 27.754583,45.7768966 27.754583,47.1655459 C27.754583,47.9950261 28.3736317,48.8010312 29.0014429,49.2590002 C29.424663,49.5677262 29.7620469,49.679918 30.2567748,49.679918 Z" id="Oval-2" fill="#FF0000" transform="translate(30.268841, 46.991311) scale(1, -1) translate(-30.268841, -46.991311) "></path>
                        <path d="M36.3351984,18.0378865 L40.5725393,17.1633223" id="Line" stroke-width="3" stroke-linecap="square"></path>
                        <path d="M40.5725393,25.2530411 L44.8098803,24.3784769" id="Line" stroke-width="3" stroke-linecap="square"></path>
                        <path d="M45.0217473,31.1563494 L49.2590882,30.2817853" id="Line" stroke-width="3" stroke-linecap="square"></path>
                        <path d="M51.9074263,36.075773 L54.4674569,34.1080036" id="Line" stroke-width="3" stroke-linecap="square"></path>
                        <path d="M66.5262525,42.6350045 L69.086283,40.6672351" id="Line" stroke-width="3" stroke-linecap="square"></path>
                        <path d="M73.729732,45.2586971 L76.2897626,43.2909277" id="Line" stroke-width="3" stroke-linecap="square"></path>
                        <path d="M80.5094775,47.2264665 L83.0695081,45.2586971" id="Line" stroke-width="3" stroke-linecap="square"></path>
                        <path d="M58.8990388,39.5740298 L61.4590694,37.6062604" id="Line" stroke-width="3" stroke-linecap="square"></path>
                        <path d="" id="Path-6"></path>
                        <path d="M26.8773014,10.6642053 C26.8773014,11.3912229 36.6602914,26.768675 37.2422801,26.768675 C37.6302727,26.768675 39.7546824,29.5503243 43.6155095,35.1136229 L56.7603892,43.8308318 L78.0708276,49.683537 L89.7407578,51.0574407" id="Path-7"></path>
                    </g>
                </g>
                <g id="Yeezy-v2-White" transform="translate(627.000000, 163.000000)">
                    <g id="Yeezy-v2">
                        <path d="M0.362378142,41.8783959 C3.40675608,42.339496 4.56861198,42.6707789 5.85530527,42.9206742 C9.24184765,43.5783919 8.87870158,43.6553537 11.4194775,43.9244841 C15.4644716,44.352948 22.1600839,44.8980376 26.091737,45.1714438 C37.661746,45.9760196 45.5925687,44.7440108 56.5909909,43.9244841 C67.2199455,43.1324876 82.5649186,40.1626717 102.62591,35.0150364" id="Path" stroke-width="2"></path>
                        <path d="M4.52446984,48.2714235 C4.52446984,48.2714235 6.84055183,49.4914818 14.9885768,51.2331344 C17.035448,51.6706562 21.2702023,52.3341772 27.6928395,53.2236973 C36.3093271,53.762198 42.8368065,54.085914 47.2752776,54.1948453 C51.7137487,54.3037766 58.376273,54.3037766 67.2628503,54.1948453 C76.5957613,53.8937495 83.1680999,53.5700335 86.979866,53.2236973 C90.7916322,52.8773612 95.0847968,52.2138402 99.85936,51.2331344 C101.096541,50.3271556 101.946997,49.69049 102.410726,49.3231375 C102.874456,48.9557851 103.270245,47.7608425 103.598093,45.7383097 L103.598093,41.9400906 L103.598093,38.0003365 L102.410726,35.0527791" id="Path-2" stroke-width="2"></path>
                        <path d="M4.77049445,48.5436062 C3.71329038,47.5390608 2.84365264,46.5870074 2.16158122,45.6874461 C1.48455858,44.7945434 0.884824217,43.5715544 0.362378142,42.0184792" id="Path-3" stroke-width="2"></path>
                        <path d="M0.632234205,42.0896096 C-0.173362077,40.2779615 -0.173362077,38.7578512 0.632234205,37.5292789 C1.43783049,36.3007066 3.39364443,35.0651181 6.49967603,33.8225132 L31.8135766,25.5728365 L45.8531011,21.0415386 C47.1530831,18.4271329 48.5572691,17.11993 50.0656594,17.11993 C52.3282448,17.11993 52.298105,10.898196 52.298105,12.1981407 C52.298105,13.0647704 53.2719233,9.86849855 55.2195597,2.60932499 L57.9153167,0.182180966 L60.8437806,2.60932499 L69.299037,14.0605963 C71.9630187,16.7959721 74.2963974,18.16366 76.2991733,18.16366 C79.3033372,18.16366 84.7081686,18.479392 87.0646779,14.0605963 C89.4211873,9.64180059 90.6204697,6.13173226 91.6977911,6.13173226 C92.7751126,6.13173226 93.9919181,14.0605963 93.9919181,14.0605963 C93.9919181,14.0605963 93.8208925,15.5387299 95.0012499,18.16366 C96.1816073,20.7885902 101.964938,32.0667532 101.964938,32.0667532 C101.964938,32.0667532 102.296709,33.4170215 102.960251,36.1175579" id="Path-4" stroke-width="2"></path>
                        <path d="M94.9555135,17.875472 C92.8751592,18.6042315 89.4658608,20.1313231 84.7276183,22.4567467 L87.3760441,30.7221112 L98.5436897,25.5769988" id="Path-5" stroke-width="2"></path>
                        <path d="M86.2193626,26.4779348 L96.8061314,21.646873" id="Line" stroke-width="2" stroke-linecap="square" stroke-dasharray="1,3"></path>
                        <path d="M33.211422,25.2256326 C33.211422,25.2256326 33.211422,26.6160817 33.211422,29.3969801" id="Path-6" stroke-width="3"></path>
                        <path d="M35.6230091,32.5434923 C36.5851015,29.7372801 37.0661477,28.334174 37.0661477,28.334174 C37.0661477,28.334174 39.1185955,24.6511086 39.1185955,24.6511086 C39.1185955,24.6511086 39.7984132,24.1700033 41.1580485,23.2077928 L45.7408619,28.334174 L47.7567496,18.3574743" id="Path-7" stroke-width="3"></path>
                        <polyline id="Path-8" stroke-width="3" points="55.1991883 26.6010661 50.6474464 14.5975556 52.9233173 14.5975556 58.1805139 16.4992877"></polyline>
                        <polyline id="Path-9" stroke-width="3" points="63.9626325 20.5242326 67.2056942 18.3259415 69.9144083 14.6163252"></polyline>
                    </g>
                </g>
                <g id="CP-Bball-White" transform="translate(1148.500000, 25.000000) scale(-1, 1) translate(-1148.500000, -25.000000) translate(1094.000000, 0.000000)">
                    <g id="CP-Bball">
                        <path d="M0.389200248,46.7058502 C16.0381719,48.3412652 26.0920519,49.1589728 30.5508401,49.1589728 C37.2390224,49.1589728 68.1350365,49.1589728 73.9046986,49.1589728 C77.7511401,49.1589728 88.9511447,47.7950275 107.504712,45.0671369 C108.175986,42.6299981 108.511623,40.4714329 108.511623,38.5914413 C108.511623,36.7114498 107.392015,35.0209797 105.1528,33.520031 C103.034384,32.2880149 101.587733,31.6720069 100.812847,31.6720069 C100.037961,31.6720069 94.6837321,30.5620254 84.7501608,28.3420623 L76.6668885,25.0692026 L68.165973,19.4292279 L60.2882076,14.0708715 L51.2702102,9.82833183 L46.0574056,6.98931626 L43.3515572,7.73215674 C39.5034123,5.77412782 37.5793399,4.79511337 37.5793399,4.79511337 C37.5793399,4.79511337 37.3689103,4.59667432 36.9480513,4.19979624 C35.9820632,4.19979624 35.4990691,4.19979624 35.4990691,4.19979624 C35.4990691,4.19979624 34.6105541,6.39532127 32.8335241,10.7863713 L32.8335241,12.5041548 C32.4192385,13.0890492 31.420696,13.6112881 29.8378966,14.0708715 C27.4636975,14.7602466 21.2052777,16.948413 17.2055516,14.7262839 C14.5390675,13.2448645 11.5368666,11.2320101 8.19894875,8.68772078 L7.34838775,8.33256826 L6.53398088,9.14840017 L4.82652017,14.0708715 L3.04299495,18.3952228 L1.89122783,22.811098 C1.20461249,27.7065746 0.861304816,30.3395712 0.861304816,30.7100878 C0.861304816,31.0806044 0.99332215,32.0172521 1.25735682,33.520031 C1.30805853,33.171336 1.17604119,33.2889867 0.861304816,33.8729829 C0.546568437,34.4569791 0.389200248,35.1506263 0.389200248,35.9539244 C0.148790826,42.0634379 0.0285861146,45.3828039 0.0285861146,45.9120224 C0.0285861146,46.4412409 0.148790826,46.7058502 0.389200248,46.7058502 Z" id="Path" stroke-width="2"></path>
                        <path d="M49.120943,13.6504504 C48.6365606,13.6504504 40.8430372,18.2608609 25.7403729,27.481682 C24.4900243,27.8081401 24.9802426,30.4434223 27.2110279,35.3875286" id="Path-2" stroke-width="2"></path>
                        <path d="M43.5473163,7.84704031 C43.5473163,7.84704031 38.9554744,9.63232335 40.4860884,9.63232335 C41.5064977,9.63232335 52.6234296,15.3229245 73.8368841,26.7041269 C77.1337005,28.4392523 79.3997951,29.306815 80.6351678,29.306815 C82.4882268,29.306815 83.9422968,29.2241375 84.9797751,28.5103549" id="Path-3" stroke-width="2"></path>
                        <path d="M3.06859086,19.6346486 C5.96179532,20.3798486 11.0686426,22.4963928 11.0686426,22.4963928 C11.0686426,22.4963928 9.91968196,23.8175794 17.3196498,15.3326621" id="Path-5" stroke-width="2"></path>
                        <path d="M61.5364978,20.4498488 C61.5364978,20.4498488 58.8104949,25.6375878 53.3584891,36.0130657" id="Path-4" stroke-width="2"></path>
                        <path d="M1.47636827,33.5338405 L16.0277358,35.296525 C29.0652363,35.7951623 38.8317934,36.0444809 45.3274072,36.0444809 C51.8230209,36.0444809 54.5741604,36.0444809 53.5808258,36.0444809 C52.8800288,35.9123759 53.8131259,35.9123759 56.3801173,36.0444809 C58.9471086,36.1765859 62.6844954,36.1765859 67.5922777,36.0444809 C73.2707935,36.1134202 77.2044706,36.1134202 79.3933092,36.0444809 C87.2942842,35.7956332 91.456285,35.296525 91.9386146,35.296525 C92.6213767,35.296525 97.2035996,34.8680533 105.685283,34.01111" id="Path-6" stroke-width="2"></path>
                        <path d="M74.0802144,26.9323052 C73.540162,27.6265737 73.2125102,28.1882128 73.097259,28.6172226 C72.9820079,29.0462325 72.9820079,29.7042414 73.097259,30.5912495 C74.5197201,32.0218185 76.1135911,32.7371029 77.8788721,32.7371029 C79.6441531,32.7371029 80.9271225,32.0218185 81.7277803,30.5912495 C89.3213734,31.7765135 93.2638964,32.3691454 93.5553492,32.3691454 C93.9925284,32.3691454 101.33245,33.1245605 103.084796,32.3691454" id="Path-7" stroke-width="2"></path>
                        <path d="M32.6062841,12.8916905 C32.6062841,12.8916905 36.1434513,11.2508779 43.2177858,7.9692526" id="Path-8" stroke-width="2"></path>
                        <path d="M49.8195168,8.99757191 L49.1828949,10.3491795" id="Path-10" stroke-width="4"></path>
                        <path d="M55.1193579,11.617118 L54.482736,12.9687255" id="Path-10" stroke-width="4"></path>
                        <path d="M60.1352288,13.9405416 L59.498607,15.2921491" id="Path-10" stroke-width="4"></path>
                        <path d="M65.1510998,17.1575896 L64.5144779,18.5091972" id="Path-10" stroke-width="4"></path>
                        <path d="M69.3021654,20.1959128 L68.6655435,21.5475203" id="Path-10" stroke-width="4"></path>
                        <path d="M74.1450752,23.2342359 L73.5084534,24.2283937" id="Path-10" stroke-width="4"></path>
                    </g>
                </g>
                <g id="CP-Achilles-Copy" transform="translate(315.000000, 268.000000)">
                    <g id="CP-Achilles">
                        <path d="M26.1385445,20.7142636 L27.1117882,22.8719994" id="Line" stroke-width="3" stroke-linecap="square"></path>
                        <path d="M30.4274556,18.7670901 L32.1382095,20.3598523" id="Line" stroke-width="3" stroke-linecap="square"></path>
                        <path d="M35.8686726,16.1686486 L37.8621136,17.3586033" id="Line" stroke-width="3" stroke-linecap="square"></path>
                        <path d="M41.9862043,13.2916675 L43.9796453,14.4816222" id="Line" stroke-width="3" stroke-linecap="square"></path>
                        <path d="M48.103736,10.2708374 L50.097177,11.4607921" id="Line" stroke-width="3" stroke-linecap="square"></path>
                        <path d="M53.9431981,7.39385638 L55.936639,8.58381107" id="Line" stroke-width="3" stroke-linecap="square"></path>
                        <path d="M102.608139,39.7290678 L99.5426897,40.884231 L52.4359899,42.2370263 L30.8220706,42.2370263 L7.64828939,39.7290678 L1.24954299,37.369151 C-0.287058374,34.6480026 -0.287058374,31.691057 1.24954299,28.4983142 C2.03104855,26.8745058 4.38242212,26.0369546 7.64828939,25.1108564 C9.75195763,24.5143217 13.9578752,23.7993943 20.2660421,22.9660742 L68.5949744,0.0589833763 L72.141845,9.79400473 C80.0781326,13.6435764 88.6704127,13.3134603 97.9186853,8.80365646 C98.9218985,8.31445215 99.1319471,9.81973813 99.5426897,10.849258 C100.094258,12.2317546 100.690502,13.4689041 101.03559,14.6494825 C101.856332,17.4573243 102.602242,18.3618724 102.608139,22.9660742 C102.612671,26.5047409 102.612671,32.0924054 102.608139,39.7290678 Z" id="Path" stroke-width="2"></path>
                        <path d="M1.2785789,28.5561006 C1.51414646,28.7140131 2.897731,29.5335108 5.98055692,30.2609284 C9.3802038,31.0631025 15.1472902,31.1792763 19.6859399,31.5255128 C22.1044171,31.7100093 24.7816357,31.9486336 27.7175959,32.2413856 C32.6042728,32.2413856 35.5964834,32.2413856 36.6942276,32.2413856 C37.6090536,32.2413856 44.0478134,32.2413856 51.251788,32.2413856 C62.076248,32.2413856 75.1351905,31.5255128 76.2723423,31.5255128 C78.4832626,31.5255128 87.2153405,30.8606619 102.468576,29.5309601" id="Path-2" stroke-width="2"></path>
                        <path d="M93.4313932,10.5009809 C93.4313932,10.5009809 94.9339866,13.6185022 97.9391736,19.8535449 L101.74241,16.9255433" id="Path-3" stroke-width="2"></path>
                        <path d="M96.1415616,16.5105127 C85.0494344,20.8789565 73.0106084,18.8525654 60.0250835,10.4313393 C59.1068688,9.83586901 57.8260389,11.1818218 56.6713751,11.6597809 C54.1574017,12.7004097 51.2915728,14.3835927 47.3682702,16.5105127 C39.0859647,21.0005567 28.6291895,25.1547078 24.5051036,27.899251 C23.5188683,28.555582 23.6717979,28.495408 23.0589387,28.9783257 C21.8892897,29.89998 21.4732686,30.7436082 21.8108755,31.5092103" id="Path-4" stroke-width="2"></path>
                        <path d="M72.1818361,9.91643301 C71.1261096,9.91643301 65.8262242,6.6077027 65.8262242,6.6077027 C65.8262242,6.6077027 63.8054492,5.8040204 59.7638992,4.19665582" id="Path-5" stroke-width="2"></path>
                        <path d="M59.555623,10.1835942 L66.305472,7.01229241" id="Path-6" stroke-width="2"></path>
                    </g>
                </g>
                <g id="CDG-White" transform="translate(210.000000, 346.000000) scale(-1, 1) translate(-210.000000, -346.000000) translate(155.000000, 311.000000)">
                    <g id="CDG">
                        <path d="M16.8434302,54.6602622 C14.9803943,54.6602622 13.9014833,54.2881557 11.3413793,54.2881557 C10.4913579,54.2881557 8.74293187,54.4819797 8.21846218,53.9339244 C6.66665717,52.3123342 6.90582332,47.5140927 6.90582332,45.4764193 C6.90582332,43.0843546 7.86982765,41.2905583 9.42224601,39.4348645 C10.8869389,37.6840339 11.8584224,36.0142545 16.3633435,36.0142545 C20.8682647,36.0142545 25.0003114,41.5936253 25.0003114,46.2425818 C25.0003114,50.8915383 21.3483513,54.6602622 16.8434302,54.6602622 Z M10.5505846,46.4338443 C10.0443913,46.4338443 10.0443913,46.937086 10.5505846,47.9435695 C11.0700314,48.9992424 11.7010873,49.9330794 12.4437521,50.7450804 C13.5577494,51.963082 13.8315402,51.3519216 16.1557975,51.3519216 C17.7053023,51.3519216 18.9969439,51.1496412 20.0307222,50.7450804 C19.203188,47.870923 18.4871465,46.0918513 17.8825978,45.4078651 C16.9757748,44.381886 15.576477,44.381886 14.4760821,44.381886 C13.3756872,44.381886 11.3098745,46.4338443 10.5505846,46.4338443 Z" id="Combined-Shape" fill="#FF0000"></path>
                        <path d="M31.8895691,55.1746129 C30.0265332,55.1746129 28.3981438,54.6785124 25.8380398,54.6785124 C24.9880184,54.6785124 18.5584686,55.2265676 18.0339989,54.6785124 C16.4821939,53.0569221 22.2593171,47.5756113 22.2593171,45.5379379 C22.2593171,43.1458732 23.2233214,41.3520768 24.7757398,39.496383 C26.2404327,37.7455524 28.841017,34.1318886 33.3459382,34.1318886 C35.3112548,34.1318886 37.2922449,35.5303414 39.0609295,37.101314 C39.7370043,37.7018139 40.1063105,38.3262698 40.8380529,38.9093064 C41.6687366,39.5711774 42.780681,41.5426355 42.7216486,42.6072846 C42.6461534,43.9688393 42.7216486,45.5713115 42.7216486,46.607009 C42.7216486,48.8384256 41.0111709,51.788749 39.9448096,53.995443 C39.7736311,54.3496743 39.7736311,54.9815185 39.0609295,55.1746129 C37.2294997,55.6708076 33.5759515,55.1746129 31.8895691,55.1746129 Z M26.6511587,50.3254026 C26.9955566,50.3254026 28.7771622,50.3254026 29.6978048,50.3254026 C30.6663616,50.3254026 31.6550925,49.8255977 32.2563716,49.8255977 C33.3567665,49.8255977 33.9420855,48.3158725 34.8489086,47.2898933 C35.4534573,46.6059072 35.8809199,45.6720702 36.1312963,44.4883824 C35.097518,43.7541546 33.8058764,43.3870407 32.2563716,43.3870407 C29.9321143,43.3870407 30.5477771,43.3870407 29.6978048,43.8815412 C29.1311567,44.2112082 28.337919,45.2596298 27.3180918,47.0268062 C26.3672764,49.2258704 26.1449654,50.3254026 26.6511587,50.3254026 Z" id="Combined-Shape" fill="#FF0000"></path>
                        <path d="M3.68680542,68.7512421 C4.9921869,68.9002462 7.46003352,69.0324383 11.0903453,69.1478184 C14.7206571,69.2631984 20.1950275,69.2631984 27.5134567,69.1478184 L49.2342151,69.1478184 L66.3059347,69.1478184 C93.3053531,66.362692 107.555916,62.9945183 109.057622,59.0432973 C109.770962,57.1663897 109.151873,56.8090945 109.057622,55.6812963 C108.988179,54.8503526 108.313637,53.5866678 107.033997,51.890242 L105.030216,49.8848291 L103.435903,48.3119661 L99.7342317,47.1646602 C93.2117788,47.1646602 89.9505523,47.1646602 89.9505523,47.1646602 C89.9505523,47.1646602 88.1321451,47.1646602 87.4230777,47.1646602 C86.950366,47.1646602 85.246184,46.1908404 82.3105317,44.2432008 L72.394719,41.4820745 L55.6401894,34.5887489 L46.544974,27.2718641 L38.311563,11.9558046 L32.7682525,4.5255378 L26.1218943,11.2455438 L18.8472975,13.0181989 L4.60109107,11.9558046 L5.3140306,27.2718641 L3.68680542,36.8366781 L0.700493882,53.8037504 L0.700493882,59.0432973 L0.0782148217,59.6946813 C0.0782148217,63.5929999 0.0782148217,66.1431024 0.0782148217,67.3449888 C0.0782148217,68.184577 0.641896904,68.7512421 2.04785224,68.7512421 C2.9851558,68.7512421 3.53147353,68.7512421 3.68680542,68.7512421 Z" id="Path" stroke-width="2"></path>
                        <path d="M0.841688076,54.1215102 C1.86853723,54.1215102 16.9730081,54.5890275 46.1551007,55.5240621 C58.3192,55.5240621 64.6485431,55.5240621 65.1431298,55.5240621 C65.6377165,55.5240621 70.1610239,55.0565448 78.7130522,54.1215102 L91.2662831,50.9550476 L102.13297,48.020152" id="Path-2" stroke-width="2"></path>
                        <path d="M78.2659295,67.7787251 C78.2659295,66.8070503 77.6963607,63.9190818 76.557223,59.1148195 L97.6661758,54.0187823 L105.615761,50.8818611" id="Path-3" stroke-width="2"></path>
                        <path d="M76.6835476,59.1224163 C75.1333572,59.1224163 68.8995822,60.2656342 61.0360256,60.6548975 C51.6705581,61.1185087 40.0436397,60.8294735 31.9615073,60.6548975 C26.1075161,60.5284499 15.4797519,60.0176229 0.0782148217,59.1224163" id="Path-4" stroke-width="2"></path>
                        <path d="M15.995962,50.2874412 C17.2245768,50.2874412 18.5222864,49.0391974 18.5222864,47.650548 C18.5222864,47.0531273 17.949425,45.7868748 17.6415209,45.3554848 C17.2337303,44.7841486 16.6960057,44.9257891 15.995962,44.9257891 C14.7673471,44.9257891 13.4937702,46.3844198 13.4937702,47.7730692 C13.4937702,48.6025493 14.0276048,49.8294722 14.655416,50.2874412 C15.0786361,50.5961672 15.5012341,50.2874412 15.995962,50.2874412 Z" id="Oval-2" fill="#FF0000"></path>
                        <path d="M30.2567748,49.679918 C31.4853896,49.679918 32.7830992,48.4316741 32.7830992,47.0430248 C32.7830992,46.4456041 32.2102378,45.1793515 31.9023337,44.7479616 C31.4945431,44.1766254 30.9568185,44.3182659 30.2567748,44.3182659 C29.0281599,44.3182659 27.754583,45.7768966 27.754583,47.1655459 C27.754583,47.9950261 28.3736317,48.8010312 29.0014429,49.2590002 C29.424663,49.5677262 29.7620469,49.679918 30.2567748,49.679918 Z" id="Oval-2" fill="#FF0000" transform="translate(30.268841, 46.991311) scale(1, -1) translate(-30.268841, -46.991311) "></path>
                        <path d="M36.3351984,18.0378865 L40.5725393,17.1633223" id="Line" stroke-width="3" stroke-linecap="square"></path>
                        <path d="M40.5725393,25.2530411 L44.8098803,24.3784769" id="Line" stroke-width="3" stroke-linecap="square"></path>
                        <path d="M45.0217473,31.1563494 L49.2590882,30.2817853" id="Line" stroke-width="3" stroke-linecap="square"></path>
                        <path d="M51.9074263,36.075773 L54.4674569,34.1080036" id="Line" stroke-width="3" stroke-linecap="square"></path>
                        <path d="M66.5262525,42.6350045 L69.086283,40.6672351" id="Line" stroke-width="3" stroke-linecap="square"></path>
                        <path d="M73.729732,45.2586971 L76.2897626,43.2909277" id="Line" stroke-width="3" stroke-linecap="square"></path>
                        <path d="M80.5094775,47.2264665 L83.0695081,45.2586971" id="Line" stroke-width="3" stroke-linecap="square"></path>
                        <path d="M58.8990388,39.5740298 L61.4590694,37.6062604" id="Line" stroke-width="3" stroke-linecap="square"></path>
                        <path d="" id="Path-6"></path>
                        <path d="M26.8773014,10.6642053 C26.8773014,11.3912229 36.6602914,26.768675 37.2422801,26.768675 C37.6302727,26.768675 39.7546824,29.5503243 43.6155095,35.1136229 L56.7603892,43.8308318 L78.0708276,49.683537 L89.7407578,51.0574407" id="Path-7"></path>
                    </g>
                </g>
                <g id="Yeezy-v2-White" transform="translate(0.772682, 380.932434)">
                    <g id="Yeezy-v2">
                        <path d="M0.362378142,41.8783959 C3.40675608,42.339496 4.56861198,42.6707789 5.85530527,42.9206742 C9.24184765,43.5783919 8.87870158,43.6553537 11.4194775,43.9244841 C15.4644716,44.352948 22.1600839,44.8980376 26.091737,45.1714438 C37.661746,45.9760196 45.5925687,44.7440108 56.5909909,43.9244841 C67.2199455,43.1324876 82.5649186,40.1626717 102.62591,35.0150364" id="Path" stroke-width="2"></path>
                        <path d="M4.52446984,48.2714235 C4.52446984,48.2714235 6.84055183,49.4914818 14.9885768,51.2331344 C17.035448,51.6706562 21.2702023,52.3341772 27.6928395,53.2236973 C36.3093271,53.762198 42.8368065,54.085914 47.2752776,54.1948453 C51.7137487,54.3037766 58.376273,54.3037766 67.2628503,54.1948453 C76.5957613,53.8937495 83.1680999,53.5700335 86.979866,53.2236973 C90.7916322,52.8773612 95.0847968,52.2138402 99.85936,51.2331344 C101.096541,50.3271556 101.946997,49.69049 102.410726,49.3231375 C102.874456,48.9557851 103.270245,47.7608425 103.598093,45.7383097 L103.598093,41.9400906 L103.598093,38.0003365 L102.410726,35.0527791" id="Path-2" stroke-width="2"></path>
                        <path d="M4.77049445,48.5436062 C3.71329038,47.5390608 2.84365264,46.5870074 2.16158122,45.6874461 C1.48455858,44.7945434 0.884824217,43.5715544 0.362378142,42.0184792" id="Path-3" stroke-width="2"></path>
                        <path d="M0.632234205,42.0896096 C-0.173362077,40.2779615 -0.173362077,38.7578512 0.632234205,37.5292789 C1.43783049,36.3007066 3.39364443,35.0651181 6.49967603,33.8225132 L31.8135766,25.5728365 L45.8531011,21.0415386 C47.1530831,18.4271329 48.5572691,17.11993 50.0656594,17.11993 C52.3282448,17.11993 52.298105,10.898196 52.298105,12.1981407 C52.298105,13.0647704 53.2719233,9.86849855 55.2195597,2.60932499 L57.9153167,0.182180966 L60.8437806,2.60932499 L69.299037,14.0605963 C71.9630187,16.7959721 74.2963974,18.16366 76.2991733,18.16366 C79.3033372,18.16366 84.7081686,18.479392 87.0646779,14.0605963 C89.4211873,9.64180059 90.6204697,6.13173226 91.6977911,6.13173226 C92.7751126,6.13173226 93.9919181,14.0605963 93.9919181,14.0605963 C93.9919181,14.0605963 93.8208925,15.5387299 95.0012499,18.16366 C96.1816073,20.7885902 101.964938,32.0667532 101.964938,32.0667532 C101.964938,32.0667532 102.296709,33.4170215 102.960251,36.1175579" id="Path-4" stroke-width="2"></path>
                        <path d="M94.9555135,17.875472 C92.8751592,18.6042315 89.4658608,20.1313231 84.7276183,22.4567467 L87.3760441,30.7221112 L98.5436897,25.5769988" id="Path-5" stroke-width="2"></path>
                        <path d="M86.2193626,26.4779348 L96.8061314,21.646873" id="Line" stroke-width="2" stroke-linecap="square" stroke-dasharray="1,3"></path>
                        <path d="M33.211422,25.2256326 C33.211422,25.2256326 33.211422,26.6160817 33.211422,29.3969801" id="Path-6" stroke-width="3"></path>
                        <path d="M35.6230091,32.5434923 C36.5851015,29.7372801 37.0661477,28.334174 37.0661477,28.334174 C37.0661477,28.334174 39.1185955,24.6511086 39.1185955,24.6511086 C39.1185955,24.6511086 39.7984132,24.1700033 41.1580485,23.2077928 L45.7408619,28.334174 L47.7567496,18.3574743" id="Path-7" stroke-width="3"></path>
                        <polyline id="Path-8" stroke-width="3" points="55.1991883 26.6010661 50.6474464 14.5975556 52.9233173 14.5975556 58.1805139 16.4992877"></polyline>
                        <polyline id="Path-9" stroke-width="3" points="63.9626325 20.5242326 67.2056942 18.3259415 69.9144083 14.6163252"></polyline>
                    </g>
                </g>
                <g id="CP-Bball-White" transform="translate(522.500000, 243.000000) scale(-1, 1) translate(-522.500000, -243.000000) translate(468.000000, 218.000000)">
                    <g id="CP-Bball">
                        <path d="M0.389200248,46.7058502 C16.0381719,48.3412652 26.0920519,49.1589728 30.5508401,49.1589728 C37.2390224,49.1589728 68.1350365,49.1589728 73.9046986,49.1589728 C77.7511401,49.1589728 88.9511447,47.7950275 107.504712,45.0671369 C108.175986,42.6299981 108.511623,40.4714329 108.511623,38.5914413 C108.511623,36.7114498 107.392015,35.0209797 105.1528,33.520031 C103.034384,32.2880149 101.587733,31.6720069 100.812847,31.6720069 C100.037961,31.6720069 94.6837321,30.5620254 84.7501608,28.3420623 L76.6668885,25.0692026 L68.165973,19.4292279 L60.2882076,14.0708715 L51.2702102,9.82833183 L46.0574056,6.98931626 L43.3515572,7.73215674 C39.5034123,5.77412782 37.5793399,4.79511337 37.5793399,4.79511337 C37.5793399,4.79511337 37.3689103,4.59667432 36.9480513,4.19979624 C35.9820632,4.19979624 35.4990691,4.19979624 35.4990691,4.19979624 C35.4990691,4.19979624 34.6105541,6.39532127 32.8335241,10.7863713 L32.8335241,12.5041548 C32.4192385,13.0890492 31.420696,13.6112881 29.8378966,14.0708715 C27.4636975,14.7602466 21.2052777,16.948413 17.2055516,14.7262839 C14.5390675,13.2448645 11.5368666,11.2320101 8.19894875,8.68772078 L7.34838775,8.33256826 L6.53398088,9.14840017 L4.82652017,14.0708715 L3.04299495,18.3952228 L1.89122783,22.811098 C1.20461249,27.7065746 0.861304816,30.3395712 0.861304816,30.7100878 C0.861304816,31.0806044 0.99332215,32.0172521 1.25735682,33.520031 C1.30805853,33.171336 1.17604119,33.2889867 0.861304816,33.8729829 C0.546568437,34.4569791 0.389200248,35.1506263 0.389200248,35.9539244 C0.148790826,42.0634379 0.0285861146,45.3828039 0.0285861146,45.9120224 C0.0285861146,46.4412409 0.148790826,46.7058502 0.389200248,46.7058502 Z" id="Path" stroke-width="2"></path>
                        <path d="M49.120943,13.6504504 C48.6365606,13.6504504 40.8430372,18.2608609 25.7403729,27.481682 C24.4900243,27.8081401 24.9802426,30.4434223 27.2110279,35.3875286" id="Path-2" stroke-width="2"></path>
                        <path d="M43.5473163,7.84704031 C43.5473163,7.84704031 38.9554744,9.63232335 40.4860884,9.63232335 C41.5064977,9.63232335 52.6234296,15.3229245 73.8368841,26.7041269 C77.1337005,28.4392523 79.3997951,29.306815 80.6351678,29.306815 C82.4882268,29.306815 83.9422968,29.2241375 84.9797751,28.5103549" id="Path-3" stroke-width="2"></path>
                        <path d="M3.06859086,19.6346486 C5.96179532,20.3798486 11.0686426,22.4963928 11.0686426,22.4963928 C11.0686426,22.4963928 9.91968196,23.8175794 17.3196498,15.3326621" id="Path-5" stroke-width="2"></path>
                        <path d="M61.5364978,20.4498488 C61.5364978,20.4498488 58.8104949,25.6375878 53.3584891,36.0130657" id="Path-4" stroke-width="2"></path>
                        <path d="M1.47636827,33.5338405 L16.0277358,35.296525 C29.0652363,35.7951623 38.8317934,36.0444809 45.3274072,36.0444809 C51.8230209,36.0444809 54.5741604,36.0444809 53.5808258,36.0444809 C52.8800288,35.9123759 53.8131259,35.9123759 56.3801173,36.0444809 C58.9471086,36.1765859 62.6844954,36.1765859 67.5922777,36.0444809 C73.2707935,36.1134202 77.2044706,36.1134202 79.3933092,36.0444809 C87.2942842,35.7956332 91.456285,35.296525 91.9386146,35.296525 C92.6213767,35.296525 97.2035996,34.8680533 105.685283,34.01111" id="Path-6" stroke-width="2"></path>
                        <path d="M74.0802144,26.9323052 C73.540162,27.6265737 73.2125102,28.1882128 73.097259,28.6172226 C72.9820079,29.0462325 72.9820079,29.7042414 73.097259,30.5912495 C74.5197201,32.0218185 76.1135911,32.7371029 77.8788721,32.7371029 C79.6441531,32.7371029 80.9271225,32.0218185 81.7277803,30.5912495 C89.3213734,31.7765135 93.2638964,32.3691454 93.5553492,32.3691454 C93.9925284,32.3691454 101.33245,33.1245605 103.084796,32.3691454" id="Path-7" stroke-width="2"></path>
                        <path d="M32.6062841,12.8916905 C32.6062841,12.8916905 36.1434513,11.2508779 43.2177858,7.9692526" id="Path-8" stroke-width="2"></path>
                        <path d="" id="Path-9" stroke-width="2"></path>
                        <path d="M49.8195168,8.99757191 L49.1828949,10.3491795" id="Path-10" stroke-width="4"></path>
                        <path d="M55.1193579,11.617118 L54.482736,12.9687255" id="Path-10" stroke-width="4"></path>
                        <path d="M60.1352288,13.9405416 L59.498607,15.2921491" id="Path-10" stroke-width="4"></path>
                        <path d="M65.1510998,17.1575896 L64.5144779,18.5091972" id="Path-10" stroke-width="4"></path>
                        <path d="M69.3021654,20.1959128 L68.6655435,21.5475203" id="Path-10" stroke-width="4"></path>
                        <path d="M74.1450752,23.2342359 L73.5084534,24.2283937" id="Path-10" stroke-width="4"></path>
                    </g>
                </g>
            </g>
        </g>
    </g>
</svg>